%TF.GenerationSoftware,KiCad,Pcbnew,10.0.3*%
%TF.CreationDate,2026-08-09T09:42:49-04:00*%
%TF.ProjectId,PCB0052C Traquito Triple PowerFilm,50434230-3035-4324-9320-547261717569,rev?*%
%TF.SameCoordinates,Original*%
%TF.FileFunction,Copper,L2,Bot*%
%TF.FilePolarity,Positive*%
%FSLAX46Y46*%
G04 Gerber Fmt 4.6, Leading zero omitted, Abs format (unit mm)*
G04 Created by KiCad (PCBNEW 10.0.3) date 2026-08-09 09:42:49*
%MOMM*%
%LPD*%
G01*
G04 APERTURE LIST*
G04 Aperture macros list*
%AMRoundRect*
0 Rectangle with rounded corners*
0 $1 Rounding radius*
0 $2 $3 $4 $5 $6 $7 $8 $9 X,Y pos of 4 corners*
0 Add a 4 corners polygon primitive as box body*
4,1,4,$2,$3,$4,$5,$6,$7,$8,$9,$2,$3,0*
0 Add four circle primitives for the rounded corners*
1,1,$1+$1,$2,$3*
1,1,$1+$1,$4,$5*
1,1,$1+$1,$6,$7*
1,1,$1+$1,$8,$9*
0 Add four rect primitives between the rounded corners*
20,1,$1+$1,$2,$3,$4,$5,0*
20,1,$1+$1,$4,$5,$6,$7,0*
20,1,$1+$1,$6,$7,$8,$9,0*
20,1,$1+$1,$8,$9,$2,$3,0*%
%AMHorizOval*
0 Thick line with rounded ends*
0 $1 width*
0 $2 $3 position (X,Y) of the first rounded end (center of the circle)*
0 $4 $5 position (X,Y) of the second rounded end (center of the circle)*
0 Add line between two ends*
20,1,$1,$2,$3,$4,$5,0*
0 Add two circle primitives to create the rounded ends*
1,1,$1,$2,$3*
1,1,$1,$4,$5*%
%AMRotRect*
0 Rectangle, with rotation*
0 The origin of the aperture is its center*
0 $1 length*
0 $2 width*
0 $3 Rotation angle, in degrees counterclockwise*
0 Add horizontal line*
21,1,$1,$2,0,0,$3*%
G04 Aperture macros list end*
%TA.AperFunction,SMDPad,CuDef*%
%ADD10RoundRect,0.300000X-1.956218X1.988269X0.743782X-2.688269X1.956218X-1.988269X-0.743782X2.688269X0*%
%TD*%
%TA.AperFunction,ComponentPad*%
%ADD11RotRect,1.700000X1.700000X60.000000*%
%TD*%
%TA.AperFunction,SMDPad,CuDef*%
%ADD12RoundRect,0.300000X-0.743782X-2.688269X1.956218X1.988269X0.743782X2.688269X-1.956218X-1.988269X0*%
%TD*%
%TA.AperFunction,ComponentPad*%
%ADD13HorizOval,6.000000X1.375000X2.381570X-1.375000X-2.381570X0*%
%TD*%
%TA.AperFunction,SMDPad,CuDef*%
%ADD14RoundRect,0.300000X2.700000X0.700000X-2.700000X0.700000X-2.700000X-0.700000X2.700000X-0.700000X0*%
%TD*%
%TA.AperFunction,ViaPad*%
%ADD15C,1.000000*%
%TD*%
%TA.AperFunction,Conductor*%
%ADD16C,1.000000*%
%TD*%
G04 APERTURE END LIST*
D10*
%TO.P,SC3,1,+*%
%TO.N,Net-(D3-A)*%
X97030763Y-84113211D03*
%TO.P,SC3,2,-*%
%TO.N,GND*%
X131030764Y-143002940D03*
%TD*%
D11*
%TO.P,+,1,Pin_1*%
%TO.N,Net-(D1-K)*%
X135085168Y-108681311D03*
%TD*%
D12*
%TO.P,SC1,1,+*%
%TO.N,Net-(D1-A)*%
X145760049Y-143001345D03*
%TO.P,SC1,2,-*%
%TO.N,GND*%
X179760049Y-84111618D03*
%TD*%
D11*
%TO.P,-,1,Pin_1*%
%TO.N,GND*%
X144435167Y-92486635D03*
%TD*%
D13*
%TO.P,J3,1,Pin_1*%
%TO.N,GND*%
X136363862Y-98565377D03*
%TD*%
D14*
%TO.P,SC2,1,+*%
%TO.N,Net-(D2-A)*%
X172396789Y-71354881D03*
%TO.P,SC2,2,-*%
%TO.N,GND*%
X104396789Y-71354881D03*
%TD*%
D15*
%TO.N,Net-(D3-A)*%
X97030762Y-84113211D03*
%TO.N,GND*%
X179760049Y-84111619D03*
X104396789Y-71334154D03*
X131030763Y-143002939D03*
%TO.N,Net-(D2-A)*%
X172396785Y-71334150D03*
%TO.N,Net-(D1-A)*%
X145760047Y-143001346D03*
%TD*%
%TO.N,GND*%
D16*
X176570146Y-78379754D02*
X152358391Y-92358416D01*
X149283247Y-94133854D02*
X145560494Y-93136343D01*
X98664486Y-76825522D02*
X98305465Y-75485627D01*
X134197165Y-147281120D02*
X136121205Y-146948584D01*
X100938042Y-71344295D02*
X104369520Y-71344295D01*
X98305465Y-75485627D02*
X100652248Y-71420876D01*
X131003496Y-143013083D02*
X133114633Y-146656119D01*
X138020902Y-145048888D02*
X138020901Y-112894288D01*
X180882751Y-79535312D02*
X176570146Y-78379754D01*
X100652248Y-71420876D02*
X100938042Y-71344295D01*
X133114633Y-146656119D02*
X134197165Y-147281120D01*
X138030675Y-110579543D02*
X139530674Y-107981467D01*
X136121205Y-146948584D02*
X138020902Y-145048888D01*
X179732781Y-84121757D02*
X181357603Y-81307486D01*
X139530674Y-107981467D02*
X136363862Y-98565377D01*
X152358391Y-92358416D02*
X149283247Y-94133854D01*
X145560494Y-93136343D02*
X145120064Y-93254359D01*
X141919124Y-91406290D02*
X140211593Y-91863823D01*
X181357603Y-81307486D02*
X180882751Y-79535312D01*
X138020901Y-112894288D02*
X138030675Y-110579543D01*
X144868178Y-92736635D02*
X141919124Y-91406290D01*
X136336593Y-98575520D02*
X98664486Y-76825522D01*
X140211593Y-91863823D02*
X136336593Y-98575520D01*
X179590279Y-84159942D02*
X179732781Y-84121757D01*
%TD*%
M02*
