%TF.GenerationSoftware,KiCad,Pcbnew,10.0.3*%
%TF.CreationDate,2026-08-09T09:42:49-04:00*%
%TF.ProjectId,PCB0052C Traquito Triple PowerFilm,50434230-3035-4324-9320-547261717569,rev?*%
%TF.SameCoordinates,Original*%
%TF.FileFunction,Legend,Bot*%
%TF.FilePolarity,Positive*%
%FSLAX46Y46*%
G04 Gerber Fmt 4.6, Leading zero omitted, Abs format (unit mm)*
G04 Created by KiCad (PCBNEW 10.0.3) date 2026-08-09 09:42:49*
%MOMM*%
%LPD*%
G01*
G04 APERTURE LIST*
%ADD10C,0.200000*%
%ADD11C,0.150000*%
G04 APERTURE END LIST*
D10*
X137967395Y-109455013D02*
X137205490Y-110774671D01*
X138246271Y-110495794D02*
X136926613Y-109733890D01*
X146653495Y-93050239D02*
X145891590Y-94369897D01*
X138615742Y-117642249D02*
X136615742Y-117642249D01*
X137377646Y-117642249D02*
X137282408Y-117832725D01*
X137282408Y-117832725D02*
X137282408Y-118213678D01*
X137282408Y-118213678D02*
X137377646Y-118404154D01*
X137377646Y-118404154D02*
X137472884Y-118499392D01*
X137472884Y-118499392D02*
X137663361Y-118594630D01*
X137663361Y-118594630D02*
X138234789Y-118594630D01*
X138234789Y-118594630D02*
X138425265Y-118499392D01*
X138425265Y-118499392D02*
X138520504Y-118404154D01*
X138520504Y-118404154D02*
X138615742Y-118213678D01*
X138615742Y-118213678D02*
X138615742Y-117832725D01*
X138615742Y-117832725D02*
X138520504Y-117642249D01*
X137282408Y-119261297D02*
X138615742Y-119737487D01*
X137282408Y-120213678D02*
X138615742Y-119737487D01*
X138615742Y-119737487D02*
X139091932Y-119547011D01*
X139091932Y-119547011D02*
X139187170Y-119451773D01*
X139187170Y-119451773D02*
X139282408Y-119261297D01*
X138615742Y-122499393D02*
X136615742Y-122499393D01*
X138615742Y-123642250D02*
X137472884Y-122785107D01*
X136615742Y-123642250D02*
X137758599Y-122499393D01*
X138520504Y-124404155D02*
X138615742Y-124689869D01*
X138615742Y-124689869D02*
X138615742Y-125166060D01*
X138615742Y-125166060D02*
X138520504Y-125356536D01*
X138520504Y-125356536D02*
X138425265Y-125451774D01*
X138425265Y-125451774D02*
X138234789Y-125547012D01*
X138234789Y-125547012D02*
X138044313Y-125547012D01*
X138044313Y-125547012D02*
X137853837Y-125451774D01*
X137853837Y-125451774D02*
X137758599Y-125356536D01*
X137758599Y-125356536D02*
X137663361Y-125166060D01*
X137663361Y-125166060D02*
X137568123Y-124785107D01*
X137568123Y-124785107D02*
X137472884Y-124594631D01*
X137472884Y-124594631D02*
X137377646Y-124499393D01*
X137377646Y-124499393D02*
X137187170Y-124404155D01*
X137187170Y-124404155D02*
X136996694Y-124404155D01*
X136996694Y-124404155D02*
X136806218Y-124499393D01*
X136806218Y-124499393D02*
X136710980Y-124594631D01*
X136710980Y-124594631D02*
X136615742Y-124785107D01*
X136615742Y-124785107D02*
X136615742Y-125261298D01*
X136615742Y-125261298D02*
X136710980Y-125547012D01*
X137282408Y-127261298D02*
X138615742Y-127261298D01*
X136520504Y-126785107D02*
X137949075Y-126308917D01*
X137949075Y-126308917D02*
X137949075Y-127547012D01*
X136615742Y-128023203D02*
X138615742Y-128689869D01*
X138615742Y-128689869D02*
X136615742Y-129356536D01*
X138044313Y-129927965D02*
X138044313Y-130880346D01*
X138615742Y-129737489D02*
X136615742Y-130404155D01*
X136615742Y-130404155D02*
X138615742Y-131070822D01*
D11*
X96959401Y-80035833D02*
X96197496Y-78716176D01*
X95918620Y-79756957D02*
X97238278Y-78995052D01*
X136123293Y-145601976D02*
X135361388Y-144282319D01*
X141099905Y-144134548D02*
X140338001Y-145454206D01*
X141378782Y-145175329D02*
X140059124Y-144413425D01*
X179619518Y-78616618D02*
X178857614Y-79936276D01*
X99224503Y-73903980D02*
X100748313Y-73903980D01*
X175838398Y-74604822D02*
X177362208Y-74604822D01*
X176600303Y-73842917D02*
X176600303Y-75366727D01*
M02*
