%TF.GenerationSoftware,KiCad,Pcbnew,10.0.3*%
%TF.CreationDate,2026-08-09T09:42:49-04:00*%
%TF.ProjectId,PCB0052C Traquito Triple PowerFilm,50434230-3035-4324-9320-547261717569,rev?*%
%TF.SameCoordinates,Original*%
%TF.FileFunction,Legend,Top*%
%TF.FilePolarity,Positive*%
%FSLAX46Y46*%
G04 Gerber Fmt 4.6, Leading zero omitted, Abs format (unit mm)*
G04 Created by KiCad (PCBNEW 10.0.3) date 2026-08-09 09:42:49*
%MOMM*%
%LPD*%
G01*
G04 APERTURE LIST*
%ADD10C,0.200000*%
%ADD11C,0.100000*%
%ADD12C,0.120000*%
G04 APERTURE END LIST*
D10*
X138615740Y-129026713D02*
X136615740Y-129026713D01*
X137377644Y-129026713D02*
X137282406Y-128836237D01*
X137282406Y-128836237D02*
X137282406Y-128455284D01*
X137282406Y-128455284D02*
X137377644Y-128264808D01*
X137377644Y-128264808D02*
X137472882Y-128169570D01*
X137472882Y-128169570D02*
X137663359Y-128074332D01*
X137663359Y-128074332D02*
X138234787Y-128074332D01*
X138234787Y-128074332D02*
X138425263Y-128169570D01*
X138425263Y-128169570D02*
X138520502Y-128264808D01*
X138520502Y-128264808D02*
X138615740Y-128455284D01*
X138615740Y-128455284D02*
X138615740Y-128836237D01*
X138615740Y-128836237D02*
X138520502Y-129026713D01*
X137282406Y-127407665D02*
X138615740Y-126931475D01*
X137282406Y-126455284D02*
X138615740Y-126931475D01*
X138615740Y-126931475D02*
X139091930Y-127121951D01*
X139091930Y-127121951D02*
X139187168Y-127217189D01*
X139187168Y-127217189D02*
X139282406Y-127407665D01*
X138615740Y-124169569D02*
X136615740Y-124169569D01*
X138615740Y-123026712D02*
X137472882Y-123883855D01*
X136615740Y-123026712D02*
X137758597Y-124169569D01*
X138520502Y-122264807D02*
X138615740Y-121979093D01*
X138615740Y-121979093D02*
X138615740Y-121502902D01*
X138615740Y-121502902D02*
X138520502Y-121312426D01*
X138520502Y-121312426D02*
X138425263Y-121217188D01*
X138425263Y-121217188D02*
X138234787Y-121121950D01*
X138234787Y-121121950D02*
X138044311Y-121121950D01*
X138044311Y-121121950D02*
X137853835Y-121217188D01*
X137853835Y-121217188D02*
X137758597Y-121312426D01*
X137758597Y-121312426D02*
X137663359Y-121502902D01*
X137663359Y-121502902D02*
X137568121Y-121883855D01*
X137568121Y-121883855D02*
X137472882Y-122074331D01*
X137472882Y-122074331D02*
X137377644Y-122169569D01*
X137377644Y-122169569D02*
X137187168Y-122264807D01*
X137187168Y-122264807D02*
X136996692Y-122264807D01*
X136996692Y-122264807D02*
X136806216Y-122169569D01*
X136806216Y-122169569D02*
X136710978Y-122074331D01*
X136710978Y-122074331D02*
X136615740Y-121883855D01*
X136615740Y-121883855D02*
X136615740Y-121407664D01*
X136615740Y-121407664D02*
X136710978Y-121121950D01*
X137282406Y-119407664D02*
X138615740Y-119407664D01*
X136520502Y-119883855D02*
X137949073Y-120360045D01*
X137949073Y-120360045D02*
X137949073Y-119121950D01*
X136615740Y-118645759D02*
X138615740Y-117979093D01*
X138615740Y-117979093D02*
X136615740Y-117312426D01*
X138044311Y-116740997D02*
X138044311Y-115788616D01*
X138615740Y-116931473D02*
X136615740Y-116264807D01*
X136615740Y-116264807D02*
X138615740Y-115598140D01*
X127150165Y-91808436D02*
X126150165Y-93540487D01*
X126150165Y-93540487D02*
X125490336Y-93159534D01*
X125490336Y-93159534D02*
X125372998Y-92981818D01*
X125372998Y-92981818D02*
X125338138Y-92851720D01*
X125338138Y-92851720D02*
X125350897Y-92639144D01*
X125350897Y-92639144D02*
X125493755Y-92391708D01*
X125493755Y-92391708D02*
X125671471Y-92274370D01*
X125671471Y-92274370D02*
X125801569Y-92239510D01*
X125801569Y-92239510D02*
X126014145Y-92252270D01*
X126014145Y-92252270D02*
X126673974Y-92633222D01*
X124333132Y-90401965D02*
X124463230Y-90367105D01*
X124463230Y-90367105D02*
X124758285Y-90427484D01*
X124758285Y-90427484D02*
X124923242Y-90522722D01*
X124923242Y-90522722D02*
X125123059Y-90748057D01*
X125123059Y-90748057D02*
X125192778Y-91008253D01*
X125192778Y-91008253D02*
X125180019Y-91220829D01*
X125180019Y-91220829D02*
X125072021Y-91598362D01*
X125072021Y-91598362D02*
X124929164Y-91845798D01*
X124929164Y-91845798D02*
X124656209Y-92128094D01*
X124656209Y-92128094D02*
X124478492Y-92245432D01*
X124478492Y-92245432D02*
X124218297Y-92315151D01*
X124218297Y-92315151D02*
X123923242Y-92254772D01*
X123923242Y-92254772D02*
X123758285Y-92159534D01*
X123758285Y-92159534D02*
X123558468Y-91934199D01*
X123558468Y-91934199D02*
X123523609Y-91804101D01*
X122584903Y-90382367D02*
X122385086Y-90157032D01*
X122385086Y-90157032D02*
X122350227Y-90026934D01*
X122350227Y-90026934D02*
X122362986Y-89814358D01*
X122362986Y-89814358D02*
X122505843Y-89566922D01*
X122505843Y-89566922D02*
X122683560Y-89449584D01*
X122683560Y-89449584D02*
X122813658Y-89414724D01*
X122813658Y-89414724D02*
X123026234Y-89427484D01*
X123026234Y-89427484D02*
X123686063Y-89808436D01*
X123686063Y-89808436D02*
X122686063Y-91540487D01*
X122686063Y-91540487D02*
X122108713Y-91207153D01*
X122108713Y-91207153D02*
X121991375Y-91029437D01*
X121991375Y-91029437D02*
X121956515Y-90899339D01*
X121956515Y-90899339D02*
X121969274Y-90686763D01*
X121969274Y-90686763D02*
X122064513Y-90521806D01*
X122064513Y-90521806D02*
X122242229Y-90404467D01*
X122242229Y-90404467D02*
X122372327Y-90369608D01*
X122372327Y-90369608D02*
X122584903Y-90382367D01*
X122584903Y-90382367D02*
X123162253Y-90715701D01*
X120624098Y-90350011D02*
X120459141Y-90254772D01*
X120459141Y-90254772D02*
X120341802Y-90077056D01*
X120341802Y-90077056D02*
X120306943Y-89946958D01*
X120306943Y-89946958D02*
X120319702Y-89734382D01*
X120319702Y-89734382D02*
X120427700Y-89356848D01*
X120427700Y-89356848D02*
X120665795Y-88944455D01*
X120665795Y-88944455D02*
X120938750Y-88662160D01*
X120938750Y-88662160D02*
X121116467Y-88544822D01*
X121116467Y-88544822D02*
X121246564Y-88509962D01*
X121246564Y-88509962D02*
X121459141Y-88522722D01*
X121459141Y-88522722D02*
X121624098Y-88617960D01*
X121624098Y-88617960D02*
X121741436Y-88795676D01*
X121741436Y-88795676D02*
X121776295Y-88925774D01*
X121776295Y-88925774D02*
X121763536Y-89138350D01*
X121763536Y-89138350D02*
X121655538Y-89515884D01*
X121655538Y-89515884D02*
X121417443Y-89928277D01*
X121417443Y-89928277D02*
X121144488Y-90210572D01*
X121144488Y-90210572D02*
X120966772Y-90327910D01*
X120966772Y-90327910D02*
X120836674Y-90362770D01*
X120836674Y-90362770D02*
X120624098Y-90350011D01*
X118974525Y-89397630D02*
X118809568Y-89302391D01*
X118809568Y-89302391D02*
X118692230Y-89124675D01*
X118692230Y-89124675D02*
X118657371Y-88994577D01*
X118657371Y-88994577D02*
X118670130Y-88782001D01*
X118670130Y-88782001D02*
X118778128Y-88404467D01*
X118778128Y-88404467D02*
X119016223Y-87992074D01*
X119016223Y-87992074D02*
X119289178Y-87709779D01*
X119289178Y-87709779D02*
X119466894Y-87592441D01*
X119466894Y-87592441D02*
X119596992Y-87557581D01*
X119596992Y-87557581D02*
X119809568Y-87570341D01*
X119809568Y-87570341D02*
X119974525Y-87665579D01*
X119974525Y-87665579D02*
X120091864Y-87843295D01*
X120091864Y-87843295D02*
X120126723Y-87973393D01*
X120126723Y-87973393D02*
X120113964Y-88185969D01*
X120113964Y-88185969D02*
X120005966Y-88563503D01*
X120005966Y-88563503D02*
X119767871Y-88975896D01*
X119767871Y-88975896D02*
X119494916Y-89258191D01*
X119494916Y-89258191D02*
X119317199Y-89375529D01*
X119317199Y-89375529D02*
X119187102Y-89410389D01*
X119187102Y-89410389D02*
X118974525Y-89397630D01*
X116830082Y-88159534D02*
X117654868Y-88635725D01*
X117654868Y-88635725D02*
X118213537Y-87858558D01*
X118213537Y-87858558D02*
X118083439Y-87893417D01*
X118083439Y-87893417D02*
X117870863Y-87880658D01*
X117870863Y-87880658D02*
X117458470Y-87642563D01*
X117458470Y-87642563D02*
X117341132Y-87464846D01*
X117341132Y-87464846D02*
X117306272Y-87334748D01*
X117306272Y-87334748D02*
X117319031Y-87122172D01*
X117319031Y-87122172D02*
X117557127Y-86709779D01*
X117557127Y-86709779D02*
X117734843Y-86592441D01*
X117734843Y-86592441D02*
X117864941Y-86557581D01*
X117864941Y-86557581D02*
X118077517Y-86570341D01*
X118077517Y-86570341D02*
X118489910Y-86808436D01*
X118489910Y-86808436D02*
X118607249Y-86986153D01*
X118607249Y-86986153D02*
X118642108Y-87116250D01*
X116183012Y-87566006D02*
X116052914Y-87600865D01*
X116052914Y-87600865D02*
X115840338Y-87588106D01*
X115840338Y-87588106D02*
X115427945Y-87350010D01*
X115427945Y-87350010D02*
X115310607Y-87172294D01*
X115310607Y-87172294D02*
X115275747Y-87042196D01*
X115275747Y-87042196D02*
X115288507Y-86829620D01*
X115288507Y-86829620D02*
X115383745Y-86664663D01*
X115383745Y-86664663D02*
X115609081Y-86464846D01*
X115609081Y-86464846D02*
X117170253Y-86046531D01*
X117170253Y-86046531D02*
X116098031Y-85427483D01*
X114270742Y-84592441D02*
X114400839Y-84557581D01*
X114400839Y-84557581D02*
X114695894Y-84617960D01*
X114695894Y-84617960D02*
X114860851Y-84713198D01*
X114860851Y-84713198D02*
X115060668Y-84938533D01*
X115060668Y-84938533D02*
X115130387Y-85198729D01*
X115130387Y-85198729D02*
X115117628Y-85411305D01*
X115117628Y-85411305D02*
X115009630Y-85788838D01*
X115009630Y-85788838D02*
X114866773Y-86036274D01*
X114866773Y-86036274D02*
X114593818Y-86318570D01*
X114593818Y-86318570D02*
X114416102Y-86435908D01*
X114416102Y-86435908D02*
X114155906Y-86505627D01*
X114155906Y-86505627D02*
X113860851Y-86445248D01*
X113860851Y-86445248D02*
X113695894Y-86350010D01*
X113695894Y-86350010D02*
X113496077Y-86124675D01*
X113496077Y-86124675D02*
X113461218Y-85994577D01*
D11*
X96620126Y-78755317D02*
X97382031Y-80074975D01*
X96341250Y-79796098D02*
X97660908Y-79034194D01*
X134751005Y-145110692D02*
X135512910Y-146430350D01*
D10*
X137672003Y-110986651D02*
X138433908Y-109666993D01*
X138712785Y-110707774D02*
X137393127Y-109945870D01*
D11*
X140337377Y-145060485D02*
X141099282Y-143740827D01*
X141378158Y-144781609D02*
X140058501Y-144019704D01*
X179326607Y-79929157D02*
X180088512Y-78609499D01*
D10*
X146838532Y-94489753D02*
X147600437Y-93170095D01*
D11*
X100876303Y-73305933D02*
X99352494Y-73305933D01*
X177207183Y-73496967D02*
X175683374Y-73496967D01*
X176445278Y-72735062D02*
X176445278Y-74258872D01*
%TO.C,D3*%
D12*
X108609229Y-84157816D02*
X103837429Y-81402815D01*
X108609229Y-84157816D02*
X110259226Y-81299933D01*
X110259226Y-81299933D02*
X105487429Y-78544932D01*
%TO.C,D2*%
X165377633Y-82944164D02*
X167027634Y-85802048D01*
X165377633Y-82944164D02*
X170149433Y-80189165D01*
X167027634Y-85802048D02*
X171799433Y-83047047D01*
%TO.C,D1*%
X136520904Y-132024482D02*
X136520905Y-137534482D01*
X139820906Y-132024482D02*
X136520904Y-132024482D01*
X139820906Y-132024482D02*
X139820905Y-137534483D01*
%TD*%
M02*
